<svg width="25" height="24" viewBox="0 0 25 24" fill="none" xmlns="http://www.w3.org/2000/svg">
<path d="M9.01636 17.25V18.257C9.0164 18.6511 8.9388 19.0414 8.78798 19.4055C8.63716 19.7696 8.41607 20.1004 8.13736 20.379L7.51636 21H16.5164L15.8954 20.379C15.6166 20.1004 15.3956 19.7696 15.2447 19.4055C15.0939 19.0414 15.0163 18.6511 15.0164 18.257V17.25M21.0164 5.25V15C21.0164 15.5967 20.7793 16.169 20.3573 16.591C19.9354 17.0129 19.3631 17.25 18.7664 17.25H5.26636C4.66962 17.25 4.09732 17.0129 3.67537 16.591C3.25341 16.169 3.01636 15.5967 3.01636 15V5.25M21.0164 5.25C21.0164 4.65326 20.7793 4.08097 20.3573 3.65901C19.9354 3.23705 19.3631 3 18.7664 3H5.26636C4.66962 3 4.09732 3.23705 3.67537 3.65901C3.25341 4.08097 3.01636 4.65326 3.01636 5.25M21.0164 5.25V12C21.0164 12.5967 20.7793 13.169 20.3573 13.591C19.9354 14.0129 19.3631 14.25 18.7664 14.25H5.26636C4.66962 14.25 4.09732 14.0129 3.67537 13.591C3.25341 13.169 3.01636 12.5967 3.01636 12V5.25" stroke="#FF92AC" stroke-width="2" stroke-linecap="round" stroke-linejoin="round"/>
</svg>
